<svg xmlns="http://www.w3.org/2000/svg" role="img" viewBox="-7.72 -7.72 401.44 142.19"><title>UseR-24-logo-white.svg</title><defs><style>.cls-3{fill:#fff;stroke-width:0}</style></defs><path fill="#fff" stroke-width="0" d="M200.725 88.034h86.99v38.813h-86.99z" opacity=".4"/><g opacity=".4"><path d="M150.6574 25.47584c-5.65467-6.1299-12.60035-10.88414-20.03859-14.59363-10.60708-5.26987-22.39357-8.45218-34.1185-9.93367-3.13036-.39828-6.27228-.6407-9.41996-.82925C80.8504-.10774 74.61852-.04425 68.4136.60414c-9.21794.91967-18.35507 2.8687-27.08816 5.9779-9.43728 3.38626-18.54748 8.21553-26.0973 14.8707-1.8105 1.64502-3.55557 3.36509-5.16213 5.21213-4.10969 4.74655-7.36318 10.31079-8.9582 16.41375C.42863 45.70682.00727 48.43507.00727 51.1537c-.12506 5.64697 1.3699 11.3709 3.93845 16.38296 3.01108 5.94327 7.48634 11.05153 12.55995 15.32283 7.23044 6.0568 15.89234 10.57245 24.74664 13.74514 2.49353.88505 5.01976 1.69505 7.57484 2.38963.47138.13083.92545.30976 1.38914.4656 3.13229-.14622 6.2819.00193 9.41995-.08465.30015.6003.12507 1.42569.1193 2.08371 1.23522.16739 2.46658.37326 3.69795.57335-.0077-3.8615-.00385-7.72106 0-11.58063-1.37951-.39058-2.73017-.9139-4.07506-1.41223-.9293 3.03225-3.67487 5.48922-6.81293 5.99138-.27128-3.16884-.64069-6.33384-.86195-9.50654-.81193-.34248-1.55653-.79847-2.32421-1.22752-.36748 1.7701-.70996 3.60945-1.40645 5.28333-.97163 2.1953-3.12267 3.99041-5.52769 4.32326-1.3795.19433-2.8437.03848-4.11546-.54642-1.58153-.73305-2.76095-2.02406-3.55942-3.55557-1.40838-2.71093-1.53921-6.2107-1.51035-9.21025.08273-2.91873.152-5.94327 1.83936-8.44834-2.2838-2.85523-4.10392-6.24726-5.21023-9.73357-1.58538-4.94856-1.66235-10.35888-.21356-15.34977 1.4988-5.21792 4.4791-9.83362 8.22515-13.72205 3.39203-3.55558 7.3882-6.50316 11.6345-8.9582 5.5854-3.21695 11.70569-5.60657 17.9241-7.27277 7.20157-1.92977 14.66866-2.93604 22.12035-3.10535 6.91298-.16547 13.86058.36941 20.65426 1.67005 9.60468 1.84127 19.23436 5.28525 27.4191 10.69943 5.12557 3.39394 9.8798 7.75761 13.1641 12.98708.51563.79269.94083 1.63733 1.44685 2.43579-.09043-2.61473.0077-5.24293-.04425-7.85958 1.54306-.07504 3.09381-.03272 4.63879-.02694-1.68544-3.05148-3.85188-5.86246-6.20109-8.43102zm2.38385 42.613c-.16547-.71765.10582-1.52573-.25204-2.15104-.30016.47331-.56182.962-.80809 1.46226-1.68929 3.19193-3.90383 5.98945-6.41659 8.56954-4.3598 4.34057-9.44689 7.73453-14.9534 10.44547-.61377.29437-1.23138.57528-1.82975.90428 1.8509.7215 3.78838 1.7624 5.07555 3.31123 7.49017-4.13856 14.68598-9.6797 19.85388-16.5542-.24628-1.20443-.2713-2.49545-.41751-3.72104-.18086-.75229-.05388-1.5142-.25205-2.2665z" class="cls-3"/><path d="M38.53368 81.16443c-.08658 1.03128-.06157 2.2819.56181 3.15924.5522.78306 1.71238 1.0659 2.46275.38864.51178-.49254.70996-1.33526.8581-2.00481.20203-.93123.32323-1.86822.4406-2.81098-.77538-.60607-1.52766-1.2256-2.25878-1.8817l-.03272.01155c-1.3141.53103-1.85282 1.82205-2.03176 3.13806zm65.78967 12.8274c-1.74508.33285-3.5498.38095-5.31605.56757-2.23955.13276-4.47718.25783-6.72057.2232.09427 1.29293.02116 2.59741.04425 3.8942-.02116 1.34488.04426 2.69746-.03849 4.04042 5.27758-.49255 10.52051-1.30063 15.69033-2.46659-1.18712-2.10294-2.27034-4.24822-3.646-6.24149l-.01347-.01731z" class="cls-3"/></g><path d="M174.56517 33.9184c-5.90095-.0077-11.80574.0154-17.70668-.01154-1.54498-.00578-3.09573-.0481-4.6388.02694.05196 2.61665-.04617 5.24485.04426 7.85958.11928.62145.08273 1.22945.0808 1.85668 0 4.6811.00193 9.36416-.00191 14.04528-.0481 2.16644.33861 4.36751.47715 6.54357.01154.53294.24435 1.22174-.03078 1.6989.35786.6253.08657 1.43338.25204 2.15104.19817.7523.0712 1.5142.25205 2.26649.14621 1.2256.17123 2.5166.4175 3.72104.19048 1.03127.19817 2.09717.32324 3.13998.99471 10.53589 1.95095 21.09295 2.9649 31.625 4.25207 0 8.5022-.00386 12.75428.00192 1.42761-14.31273 2.75133-28.73513 4.15393-43.06132.19818-2.37423.4791-4.74461.65417-7.11885.01347-8.24246.00385-16.50032.00385-24.7447zM43.1744 63.55973c3.08996.67725 6.507.54064 9.44498-.68688 2.70323-1.16787 5.13326-3.25157 6.36847-5.95866 1.11593-2.43388 1.3141-5.23716 1.36413-7.8769-.05387-3.06304-.28283-6.46853-1.76816-9.21987-.96394-1.76047-2.44543-3.24003-4.08276-4.3829-.49639-.33093-.9062-.69456-1.50458-.82732-.20779 3.2381-.6003 6.46468-.84656 9.69894.94661.7292 1.72968 1.5873 2.07793 2.75518.55026 1.72007.30976 3.7499-.9774 5.0871-1.03127 1.14863-2.49736 1.54882-3.9827 1.68928-.0077-6.63015 0-13.2603-.00385-19.89043-3.0688-.05965-6.25111.15968-9.06402 1.49302-2.58203 1.22752-4.62918 3.39781-5.70277 6.04718-.95046 2.34152-1.21598 5.04283-1.24291 7.54982-.01924 2.9495.42135 5.87978 1.87206 8.48489 1.67967 3.04378 4.65803 5.26987 8.04814 6.03755zm-2.80713-17.94527c1.0659-1.06975 2.68015-1.40645 4.12701-1.56422a1658.08002 1658.08002 0 0 1 0 9.78168c-1.36028-.16353-2.68785-.4483-3.7576-1.3622-1.99905-1.60462-2.15297-5.04475-.3694-6.85526zm97.43196 49.68184c-1.24869-1.6104-2.55701-3.16884-3.9423-4.66572-1.28717-1.54883-3.22465-2.58973-5.07555-3.31123-1.27947-.50217-2.56855-.9774-3.85764-1.4584 3.05726-.7696 6.00869-1.59116 8.8312-3.0361 4.90433-2.61088 8.96399-6.74365 11.28242-11.8115 1.88169-4.16357 2.41079-8.78889 2.16066-13.318-.22703-3.74221-1.07937-7.38244-2.85138-10.70521-2.0914-3.89227-5.27565-7.2189-9.2141-9.2622-3.19193-1.70082-6.9726-2.49351-10.5301-2.98606-3.5171-.50601-7.0419-.63877-10.58785-.76576-16.85242-.02116-33.70676-.00577-50.55917-.0077-.00193 18.82838.00192 37.65485-.00193 56.48322-.00385 3.85957-.0077 7.71914 0 11.58063.00385 8.2694 0 16.54073.00193 24.81206 9.59504.00384 19.19009.00384 28.78513 0v-21.4335c.00962-.90236-.03848-1.79317.05194-2.69361.08275-1.34296.01733-2.69554.03849-4.04043-.0231-1.29678.05002-2.60126-.04425-3.8942-.10198-1.86821-.02116-3.74796-.04618-5.62004.91006-.0173 1.8182-.0173 2.72633-.00961 2.42425.00961 4.83119.73112 6.82255 2.1241.99856.7042 1.81818 1.73161 2.53392 2.71479l.01347.01731c1.37566 1.99327 2.45888 4.13855 3.646 6.2415 4.82349 8.85045 9.57772 17.75093 14.39737 26.60331 10.80333-.02309 21.60858.0077 32.41191-.0154-4.57915-8.90432-9.17176-17.80287-13.75668-26.70528-.86004-1.7143-2.06832-3.32084-3.2362-4.83697zm-19.42867-32.2118c-.31554 3.28428-2.71863 6.39156-5.9933 7.1554-2.4993.55603-5.04092 1.13901-7.596 1.35065-4.14433.05195-8.29441-.01924-12.43681.03656-.08851-.35017-.12122-.67917-.1116-1.04089.03272-5.9452-.03078-11.90193.03272-17.84328 4.62147-.00578 9.24295-.01155 13.8625.00191 2.5397.06735 5.3122.32132 7.67489 1.31603 2.07022.84848 3.5902 2.68784 4.20588 4.81965.43483 1.3776.43483 2.77442.36172 4.20397zm-62.43804 5.93365c-1.29293-.86966-2.87255-1.50458-4.44831-1.46995-2.32998-.12121-4.65995 1.13325-5.98753 3.02263-1.18326 1.62579-1.70467 3.65177-2.07793 5.59887-.25397 1.23522-.39058 2.47814-.5618 3.72682-.11738.94276-.23858 1.87975-.44061 2.81098-.14814.66955-.34632 1.51227-.8581 2.00481-.75037.67726-1.91055.39442-2.46275-.38864-.62338-.87735-.64839-2.12796-.5618-3.15924.17893-1.31601.71765-2.60703 2.03175-3.13806l.03272-.01154.45599-.1847c-.02118-1.51613-.26744-3.03995-.40213-4.55222-.1116-1.61232-.3367-3.21503-.46368-4.82735-1.99712.65032-3.91152 1.92786-5.08901 3.69218-1.68736 2.50507-1.75663 5.5296-1.83936 8.44834-.02886 2.99954.10197 6.49932 1.51035 9.21025.79847 1.53151 1.97789 2.82252 3.55942 3.55557 1.27177.5849 2.73595.74075 4.11546.54642 2.40502-.33285 4.55606-2.12796 5.52769-4.32326.69649-1.67388 1.03897-3.51324 1.40645-5.28333.39827-2.0029.6561-4.07505 1.24099-6.02986.2482-.84271.86773-1.6508 1.82588-1.6354 1.17557-.06158 1.94326 1.06974 2.23378 2.07601.37518 1.443.36942 3.19578-.35016 4.53681-.60414 1.05437-1.56422 1.52574-2.63206 1.9875l.00578.29246c.22126 3.1727.59067 6.3377.86195 9.50654 3.13806-.50216 5.88363-2.95913 6.81293-5.99138.7927-2.49736.96201-5.26409 1.0024-7.87112-.02885-2.38-.1943-4.89662-.95046-7.16695-.6734-1.93748-1.78355-3.79992-3.49785-4.9832zm-.37133 39.71738c1.39107-.03079 2.7802-.00577 4.17126-.01732.01732-2.41848-.02886-4.8408.02308-7.25929.00578-.65802.18086-1.48342-.11929-2.0837-3.13806.08657-6.28766-.06158-9.41995.08465-5.45265.05002-10.91493-.00385-16.36757.02694-.01347 3.2939-.00385 6.59165-.00385 9.88557 4.45216.01155 8.90817-.01732 13.36034.01539 1.3776.0885 3.1573.29821 4.19627 1.29678 1.30256 1.13517 1.55653 3.28045.64646 4.72153-.75613 1.1467-2.19722 1.4103-3.47284 1.4507-4.90623.0154-9.81438.00962-14.72061.00385-.01347 3.3324-.03078 6.66862.0077 10.00101 5.67967-.03078 11.35936.00578 17.03712-.0173 1.91054-.05196 3.98847-.38097 5.6643-1.34682 1.64117-.93122 2.82059-2.51468 3.35354-4.31364.56181-1.93363.53487-4.03272.13084-5.99521-.54834-2.73596-2.36461-4.76579-4.4868-6.45314zm114.20357 3.19578c-3.96154-.02693-7.92115.00577-11.8827-.01732-.28282.00386-.57913.00193-.85619.05772-.03463 4.94471-.00961 9.92598-.01154 14.87454 4.25399-.00192 8.50606.00385 12.76005-.00192-.0077-4.97165.0154-9.9433-.00962-14.91302z" class="cls-3"/><path d="M246.53055 61.3631c-2.50293 0-3.2998 1.02344-3.2998 2.19922 0 1.1753.79687 2.19873 3.2998 2.19873 2.46387 0 3.26074-1.02343 3.26074-2.19873 0-1.17578-.79687-2.19922-3.26074-2.19922zm56.12012-6.63574c-2.88184 0-4.24707 1.63037-4.24707 5.19483 0 3.52636 1.36523 5.15625 4.24707 5.15625 2.84375 0 4.20898-1.62989 4.20898-5.15625 0-3.56446-1.36523-5.19483-4.20898-5.19483zm61.5039 0c-3.14648 0-4.24707 1.63037-4.24707 4.13281 0 2.50293 1.10059 4.1333 4.24707 4.1333 3.14746 0 4.20899-1.5166 4.20899-4.1333 0-2.50244-1.06153-4.1328-4.20899-4.1328z" class="cls-3"/><path d="M200.72489 34.20502v47.2901h185.46606v-47.2901H200.72489zm23.62207 35.99256c-3.63965 0-9.17579-1.36524-11.792-3.37403V61.3631c3.56446 2.42676 8.37989 3.71534 11.792 3.71534 3.375 0 5.04296-.4541 5.04296-2.57813 0-1.8955-1.81933-2.42676-6.97656-3.60205-6.59765-1.5166-9.47949-3.18506-9.47949-7.50781 0-5.49805 3.98145-7.73535 10.04785-7.73535 3.0713 0 7.31836.91015 9.85938 2.16162v5.15674c-3.792-1.36524-7.9248-2.19922-10.35157-2.19922-2.19921 0-4.05761.30322-4.05761 2.19922 0 1.59228 1.97168 2.19921 5.57422 2.9956 7.28027 1.66846 10.88183 2.6919 10.88183 8.03858 0 5.83935-4.51172 8.18994-10.54101 8.18994zm33.5205-.3789h-8.07617v-1.89552c-.83398 1.32715-2.31347 2.27442-5.2705 2.27442-4.62598 0-6.7881-3.33692-6.7881-6.63526 0-3.29882 2.16212-6.63574 6.7881-6.63574 2.95703 0 4.43652.94775 5.2705 2.2749v-4.36035h-10.12402v-4.85351h15.62207v14.59863h2.57812v5.23242zm8.9873 0h-5.49804V43.27618h5.49805v26.54248zm21.8799-15.69825l-9.55567 10.5791h9.55566v5.11914h-17.63183v-4.13281l9.55468-10.5796h-9.55468v-5.11864h17.63183v4.1328zm15.16698 16.07715c-2.19922 0-4.1328-.75782-5.49804-2.80567v2.42676h-5.49805V43.2762h5.49805v9.13818c1.36523-2.04785 3.29882-2.80615 5.49804-2.80615 5.72559 0 8.45606 4.73975 8.45606 10.31397s-2.73047 10.27539-8.45606 10.27539zm30.82813-8.7207c0 6.33203-3.7539 8.7207-9.63086 8.7207-5.83887 0-9.63086-2.38867-9.63086-8.7207V49.98761h5.49805v10.54101c0 3.4126 1.0996 4.5498 4.1328 4.5498 3.0713 0 4.13282-1.1372 4.13282-4.5498V49.98762h5.49805v11.48925zm17.02637-6.37061h-7.28028v14.7124h-5.49804V49.98762h12.77832v5.11865zm22.10546 20.77978h-16.11523v-5.11914h10.61719v-4.92968c-1.1377 1.25097-2.69239 2.27539-5.49805 2.27539-5.42187 0-8.45605-4.28516-8.45605-9.25245s3.03418-9.25195 8.45605-9.25195c2.80566 0 4.36035 1.02393 5.49805 2.38916v-2.00976h5.49804v25.89843z" class="cls-3"/><g><path d="M223.11164 114.60676v2.73047h-12.98242v-2.73047l6.30957-5.88476c2.7295-2.54785 3.94336-3.88281 3.94336-6.09668 0-2.12402-1.0918-3.48926-3.61035-3.48926-2.51758 0-3.60938 1.51758-3.60938 4.55078h-3.0332c0-3.85254 1.72852-7.28027 6.64258-7.28027 4.91504 0 6.64355 3.42773 6.64355 6.37012s-1.36523 4.70214-4.0039 7.25l-4.73242 4.58007h8.43261zm20.14356-7.583c0 5.76367-1.9414 10.61718-8.25098 10.61718s-8.25098-4.85351-8.25098-10.61718 1.94141-10.6172 8.25098-10.6172 8.25098 4.85352 8.25098 10.6172zm-8.25098 7.88672c1.33398 0 2.36621-.27344 3.12402-.81934l-7.97754-11.2539c-.24316 1.12206-.36425 2.51757-.36425 4.18652 0 5.49023 1.15234 7.88672 5.21777 7.88672zm0-15.77442c-1.33496 0-2.36621.27344-3.15527.81934l7.97851 11.28418c.27246-1.12207.39356-2.51758.39356-4.21582 0-5.49121-1.18262-7.8877-5.2168-7.8877zm24.57031 15.4707v2.73047h-12.98242v-2.73047l6.30957-5.88476c2.7295-2.54785 3.94336-3.88281 3.94336-6.09668 0-2.12402-1.0918-3.48926-3.61035-3.48926-2.51758 0-3.60938 1.51758-3.60938 4.55078h-3.0332c0-3.85254 1.72852-7.28027 6.64258-7.28027 4.91504 0 6.64355 3.42773 6.64355 6.37012s-1.36523 4.70214-4.0039 7.25l-4.73242 4.58007h8.43261zm16.68457-17.89648v20.62695h-3.0332v-7.34082h-9.70703V98.22688h3.0332v9.03906h6.67383V96.71028h3.0332z" class="cls-3"/></g></svg>